<?xml version="1.0" standalone="no"?>
<!DOCTYPE svg PUBLIC "-//W3C//DTD SVG 20010904//EN"
 "http://www.w3.org/TR/2001/REC-SVG-20010904/DTD/svg10.dtd">
<svg version="1.0" xmlns="http://www.w3.org/2000/svg"
 width="225.000000pt" height="225.000000pt" viewBox="0 0 225.000000 225.000000"
 preserveAspectRatio="xMidYMid meet">
<metadata>
Created by potrace 1.14, written by Peter Selinger 2001-2017
</metadata>
<g transform="translate(0.000000,225.000000) scale(0.100000,-0.100000)"
fill="#000000" stroke="none">
<path d="M0 1125 l0 -1125 1125 0 1125 0 0 371 c0 387 1 378 -40 343 -22 -19
-518 -264 -534 -264 -2 0 -55 -24 -118 -53 -62 -30 -174 -76 -248 -102 -117
-42 -148 -49 -230 -53 -93 -4 -96 -3 -132 26 -21 16 -70 65 -110 108 -79 86
-235 243 -312 314 -46 43 -48 43 -30 13 10 -18 27 -43 39 -55 11 -13 45 -52
74 -88 54 -65 225 -253 311 -342 34 -35 55 -48 85 -52 130 -21 86 -24 -372
-25 l-493 -1 0 470 c0 259 3 470 8 470 4 0 27 -25 52 -55 43 -51 60 -65 60
-47 0 10 -45 76 -103 153 -86 114 -91 123 -76 117 72 -27 77 -14 24 56 -20 25
-35 46 -33 47 2 1 55 2 118 4 112 3 177 16 166 34 -3 4 -18 11 -33 14 -16 3
-41 19 -58 35 -16 15 -51 43 -78 60 l-47 33 0 291 0 291 88 -5 c69 -5 106 -13
182 -43 52 -21 101 -42 107 -48 9 -6 14 -5 17 4 6 22 25 121 30 159 2 19 7 43
11 53 7 16 -11 17 -284 17 l-291 0 0 -1125z"/>
<path d="M830 2242 c0 -4 4 -12 8 -17 5 -6 33 -66 62 -135 29 -69 68 -155 86
-192 34 -67 34 -67 66 -60 18 4 125 7 238 6 157 0 220 -4 270 -17 l64 -16 61
51 c33 29 98 89 145 134 47 45 129 119 183 164 53 45 97 84 97 86 0 2 -288 4
-640 4 -352 0 -640 -4 -640 -8z"/>
<path d="M2170 2213 c0 -21 -12 -108 -26 -193 -26 -163 -38 -236 -49 -310 -4
-25 -14 -72 -22 -105 -8 -33 -19 -82 -23 -110 -4 -27 -13 -78 -20 -112 -17
-87 3 -150 69 -220 48 -50 120 -103 141 -103 7 0 10 197 10 595 l0 595 -40 0
c-40 0 -40 0 -40 -37z"/>
<path d="M697 1984 c-8 -204 -9 -404 -1 -404 13 0 181 75 196 88 15 13 16 17
3 42 -8 15 -28 63 -45 106 -18 44 -42 101 -55 129 -13 27 -39 85 -58 128 l-34
78 -6 -167z"/>
<path d="M1993 1923 c-23 -27 -49 -57 -59 -69 -155 -176 -239 -277 -239 -286
0 -7 20 -25 45 -42 25 -16 71 -49 103 -73 32 -24 62 -41 66 -38 5 3 15 29 22
57 6 29 18 68 26 86 7 18 25 90 39 160 13 70 33 155 43 190 24 77 11 81 -46
15z"/>
<path d="M1236 1676 c-14 -17 -26 -35 -26 -40 0 -5 -8 -16 -19 -25 -24 -21
-52 -76 -43 -86 4 -5 2 -6 -3 -2 -6 3 -27 -26 -48 -65 -31 -56 -36 -76 -31
-104 3 -19 11 -34 16 -34 6 0 8 -6 5 -13 -5 -12 9 -51 34 -99 5 -10 9 -27 9
-37 0 -11 5 -23 10 -26 6 -3 10 -17 10 -29 0 -13 7 -39 15 -57 14 -32 15 -33
21 -12 3 13 10 20 15 17 5 -3 9 1 9 9 0 7 9 23 20 35 11 12 20 26 20 32 0 6 5
8 10 5 6 -3 10 -2 10 3 0 5 27 45 60 88 75 98 77 120 19 259 -7 17 -12 33 -11
36 1 3 -10 37 -24 75 -14 38 -26 76 -26 85 1 25 -25 18 -52 -15z m39 -118 c67
-163 69 -198 15 -279 -22 -33 -40 -65 -40 -70 0 -5 -4 -9 -10 -9 -5 0 -10 -8
-10 -17 0 -9 -3 -13 -7 -10 -3 4 -12 -1 -19 -11 -11 -15 -14 -14 -25 13 -7 17
-12 33 -11 38 1 4 -3 7 -8 7 -6 0 -10 12 -10 26 0 16 -4 23 -12 18 -6 -4 -8
-3 -4 4 3 6 -1 27 -11 46 -17 36 -17 36 20 109 20 39 44 86 54 102 10 17 23
40 30 53 19 31 28 28 48 -20z"/>
<path d="M663 1254 c-12 -32 7 -129 37 -190 36 -73 86 -118 152 -135 68 -19
82 -9 75 51 -7 61 -41 143 -80 193 -50 64 -170 117 -184 81z"/>
<path d="M411 1158 c2 -72 12 -88 89 -148 25 -19 48 -39 52 -45 5 -6 8 -6 8 0
0 6 4 4 9 -4 5 -7 28 -22 52 -33 l44 -19 -30 33 c-17 18 -33 34 -37 36 -5 2
-8 9 -8 16 0 6 -8 19 -17 27 -10 9 -36 42 -58 73 -22 32 -44 63 -50 70 -5 6
-15 20 -21 31 -24 42 -35 29 -33 -37z"/>
<path d="M1558 1075 c-25 -14 -62 -44 -81 -67 -39 -47 -81 -143 -73 -165 4 -9
25 -13 71 -13 91 0 180 37 256 107 68 63 78 86 53 115 -48 52 -149 62 -226 23z"/>
<path d="M390 1009 c0 -5 5 -7 10 -4 6 3 10 8 10 11 0 2 -4 4 -10 4 -5 0 -10
-5 -10 -11z"/>
<path d="M405 989 c-4 -5 5 -28 19 -49 14 -22 26 -44 26 -49 0 -19 60 -59 114
-76 62 -20 92 -17 50 5 -15 8 -65 52 -111 98 -46 45 -85 82 -87 82 -3 0 -8 -5
-11 -11z"/>
<path d="M1995 889 c-49 -37 -157 -89 -185 -89 -11 0 -20 -4 -20 -10 0 -5 -8
-10 -17 -10 -19 0 -79 -18 -105 -31 -10 -5 -29 -9 -42 -9 -14 0 -28 -5 -31
-11 -5 -7 24 -9 90 -8 53 1 98 6 101 10 2 4 24 7 49 7 24 -1 51 5 60 12 8 7
18 10 21 7 10 -9 61 48 56 62 -4 9 -1 12 6 7 7 -4 12 -3 12 2 0 4 8 17 18 28
23 27 44 64 35 63 -5 0 -26 -14 -48 -30z"/>
<path d="M2213 812 c-42 -22 -41 -32 2 -32 31 0 35 3 35 25 0 14 -1 25 -2 24
-2 0 -18 -8 -35 -17z"/>
<path d="M1836 673 c-4 -4 -30 -10 -59 -14 -29 -3 -97 -12 -152 -19 -55 -7
-107 -19 -115 -26 -12 -12 -11 -14 7 -14 12 0 24 -4 27 -8 11 -18 229 -3 246
17 3 3 28 17 57 31 28 14 49 28 46 32 -5 10 -47 10 -57 1z"/>
<path d="M896 532 c-3 -6 21 -47 54 -91 l60 -81 38 15 c46 20 142 82 142 94 0
4 -31 11 -68 14 -59 6 -141 27 -203 52 -10 3 -20 2 -23 -3z"/>
</g>
</svg>
